<svg width="169" height="32" viewBox="0 0 169 32" fill="none" xmlns="http://www.w3.org/2000/svg">
<path d="M65.3055 23.178V5.28247H78.245V7.39429H67.6737V12.8752H77.5736V14.9749H67.6737V21.0662H78.66V23.178H65.3055ZM81.6508 23.178V10.2141H83.6161V12.033C84.023 11.3982 84.5642 10.8896 85.2396 10.5071C85.9151 10.1165 86.6841 9.92114 87.5468 9.92114C88.507 9.92114 89.2924 10.1205 89.9027 10.5193C90.5212 10.9181 90.9566 11.4755 91.2089 12.1917C92.2343 10.678 93.5689 9.92114 95.2128 9.92114C96.4986 9.92114 97.4873 10.2792 98.1791 10.9954C98.8708 11.7034 99.2167 12.7979 99.2167 14.2791V23.178H97.0316V15.0115C97.0316 14.1326 96.9584 13.5019 96.8119 13.1194C96.6735 12.7288 96.4172 12.4154 96.0428 12.1794C95.6685 11.9434 95.229 11.8254 94.7245 11.8254C93.813 11.8254 93.0562 12.1306 92.454 12.741C91.8518 13.3432 91.5507 14.3116 91.5507 15.6462V23.178H89.3534V14.7551C89.3534 13.7786 89.1744 13.0461 88.8163 12.5579C88.4582 12.0696 87.8723 11.8254 87.0585 11.8254C86.44 11.8254 85.8663 11.9882 85.3373 12.3137C84.8164 12.6392 84.438 13.1153 84.202 13.7419C83.966 14.3686 83.848 15.2719 83.848 16.4519V23.178H81.6508ZM110.935 21.5789C110.122 22.2706 109.336 22.7589 108.579 23.0437C107.831 23.3285 107.025 23.4709 106.162 23.4709C104.738 23.4709 103.644 23.1251 102.879 22.4333C102.114 21.7335 101.731 20.8424 101.731 19.76C101.731 19.1252 101.874 18.5474 102.159 18.0266C102.452 17.4976 102.83 17.0745 103.294 16.7571C103.766 16.4397 104.295 16.1996 104.881 16.0369C105.312 15.9229 105.963 15.8131 106.834 15.7073C108.608 15.4957 109.914 15.2434 110.752 14.9504C110.76 14.6493 110.765 14.4581 110.765 14.3767C110.765 13.4815 110.557 12.8508 110.142 12.4846C109.58 11.9882 108.746 11.74 107.64 11.74C106.606 11.74 105.841 11.9231 105.345 12.2893C104.856 12.6474 104.494 13.2862 104.258 14.2058L102.11 13.9128C102.305 12.9932 102.627 12.2527 103.074 11.6912C103.522 11.1215 104.169 10.6861 105.015 10.385C105.861 10.0758 106.842 9.92114 107.957 9.92114C109.064 9.92114 109.963 10.0514 110.655 10.3118C111.346 10.5722 111.855 10.9018 112.181 11.3005C112.506 11.6912 112.734 12.1876 112.864 12.7898C112.937 13.1641 112.974 13.8396 112.974 14.8162V17.7458C112.974 19.7885 113.019 21.0824 113.108 21.6277C113.206 22.1648 113.393 22.6816 113.67 23.178H111.375C111.147 22.7222 111.001 22.1892 110.935 21.5789ZM110.752 16.6716C109.955 16.9972 108.759 17.2738 107.163 17.5017C106.26 17.6319 105.621 17.7784 105.247 17.9412C104.873 18.1039 104.584 18.344 104.38 18.6614C104.177 18.9706 104.075 19.3165 104.075 19.699C104.075 20.2849 104.295 20.7732 104.734 21.1638C105.182 21.5544 105.833 21.7498 106.687 21.7498C107.534 21.7498 108.286 21.5667 108.946 21.2004C109.605 20.8261 110.089 20.3175 110.398 19.6746C110.634 19.1781 110.752 18.4457 110.752 17.4773V16.6716ZM116.404 7.80933V5.28247H118.601V7.80933H116.404ZM116.404 23.178V10.2141H118.601V23.178H116.404ZM121.91 23.178V5.28247H124.107V23.178H121.91ZM134.69 23.178V5.28247H138.255L142.491 17.9534C142.881 19.1334 143.166 20.0164 143.345 20.6023C143.549 19.9513 143.866 18.995 144.297 17.7336L148.582 5.28247H151.768V23.178H149.485V8.19995L144.285 23.178H142.149L136.973 7.9436V23.178H134.69ZM164.182 19.0032L166.453 19.2839C166.095 20.6104 165.432 21.6399 164.463 22.3723C163.495 23.1047 162.258 23.4709 160.752 23.4709C158.856 23.4709 157.351 22.8891 156.236 21.7253C155.129 20.5535 154.576 18.9137 154.576 16.8059C154.576 14.6249 155.137 12.9322 156.26 11.7278C157.383 10.5234 158.84 9.92114 160.63 9.92114C162.364 9.92114 163.78 10.5111 164.878 11.6912C165.977 12.8712 166.526 14.5313 166.526 16.6716C166.526 16.8018 166.522 16.9972 166.514 17.2576H156.846C156.927 18.6817 157.33 19.7722 158.055 20.5291C158.779 21.2859 159.682 21.6643 160.765 21.6643C161.57 21.6643 162.258 21.4527 162.828 21.0295C163.397 20.6064 163.849 19.9309 164.182 19.0032ZM156.968 15.4509H164.207C164.109 14.3604 163.833 13.5426 163.377 12.9973C162.677 12.151 161.77 11.7278 160.655 11.7278C159.646 11.7278 158.795 12.0655 158.103 12.741C157.42 13.4164 157.041 14.3197 156.968 15.4509Z" fill="white"/>
<path d="M30.603 16.2311L45.825 25.8541V6.20508L30.603 16.2311Z" fill="white"/>
<path d="M0.671997 6.20508V25.8581L15.894 16.2351L0.671997 6.20508Z" fill="white"/>
<path d="M43.004 0.478027H3.49702C2.82835 0.482828 2.1837 0.727881 1.68069 1.16847C1.17769 1.60906 0.849854 2.21582 0.757019 2.87803L23.249 17.699L45.741 2.87803C45.6483 2.21633 45.3209 1.60997 44.8185 1.16945C44.3161 0.728923 43.6722 0.483545 43.004 0.478027Z" fill="white"/>
<path d="M28.018 17.9361L24.025 20.5661C23.7944 20.7171 23.5247 20.7975 23.249 20.7975C22.9734 20.7975 22.7037 20.7171 22.473 20.5661L18.48 17.9331L0.762024 29.1401C0.857801 29.798 1.18595 30.3999 1.68708 30.8368C2.1882 31.2737 2.82919 31.5168 3.49402 31.5221H43.004C43.6692 31.5173 44.3107 31.2744 44.8122 30.8375C45.3138 30.4005 45.6422 29.7984 45.738 29.1401L28.018 17.9361Z" fill="white"/>
</svg>
